Coordinates
version=1
nRows=19
nColumns=33
inDegrees=yes

Units are S.I. units (second, meters, Newtons, ...)
Angles are in degrees.

endheader
time	ground_thorax_rot_x	ground_thorax_rot_y	ground_thorax_rot_z	ground_thorax_tx	ground_thorax_ty	ground_thorax_tz	clav_prot_r	clav_elev_r	scapula_abduction_r	scapula_elevation_r	scapula_upward_rot_r	scapula_winging_r	shoulder_elv_r	plane_of_elev_r	axial_rot_r	elbow_flexion_r	pro_sup_r	wrist_flex_r	wrist_dev_r	clav_prot_l	clav_elev_l	scapula_abduction_l	scapula_elevation_l	scapula_upward_rot_l	scapula_winging_l	shoulder_elv_l	plane_of_elev_l	axial_rot_l	elbow_flexion_l	pro_sup_l	wrist_flex_l	wrist_dev_l	
2.5600	-15.991989	-34.199095	59.855555	88.635423	784.224298	-43.935426	28.330664	-45.000000	39.490006	-45.000000	-45.000000	-100.359923	-2808.236899	18.705528	-138.388200	1800.764517	-188.593108	11.443533	12.007633	-1.231111	29.491431	-25.453995	-45.000000	-45.000000	-3521.689547	-452.256976	134.095244	-106.566228	1790.021475	43.978840	11.030288	-13.564639	
2.5700	-15.975625	-33.910528	59.768069	88.453297	784.440075	-44.265226	28.439494	-45.000000	39.575722	-45.000000	-45.000000	-100.329744	-2808.149949	18.804781	-138.661728	1800.860054	-188.436299	11.507742	11.905318	-1.258313	29.544834	-25.503281	-45.000000	-45.000000	-3521.627406	-452.237068	134.099664	-106.691026	1790.100510	43.882810	11.103351	-13.594605	
2.5800	-15.938565	-33.657558	59.746794	88.216427	784.676123	-44.584328	28.549805	-45.000000	39.686946	-45.000000	-45.000000	-100.358587	-2808.119004	18.907276	-139.042290	1800.981300	-188.328217	11.601638	11.750804	-1.260098	29.536953	-25.580613	-45.000000	-45.000000	-3521.462924	-452.174300	134.080292	-106.787805	1790.106698	43.798178	11.275514	-13.772085	
2.5900	-15.960289	-33.384789	59.658062	87.858567	784.959354	-44.881553	28.581484	-45.000000	39.745311	-45.000000	-45.000000	-100.350240	-2808.045884	19.001574	-139.334976	1801.087056	-188.270522	11.681011	11.616193	-1.236048	29.551505	-25.694879	-45.000000	-45.000000	-3521.328743	-452.116317	134.069182	-106.850078	1790.149404	43.741070	11.390137	-13.885504	
2.6000	-16.015423	-33.113377	59.538138	87.374746	785.288558	-45.153915	28.572219	-45.000000	39.775211	-45.000000	-45.000000	-100.332787	-2807.952405	19.093949	-139.615161	1801.179732	-188.266269	11.763552	11.478537	-1.190576	29.575245	-25.839715	-45.000000	-45.000000	-3521.188929	-452.046353	134.059758	-106.883464	1790.196662	43.722682	11.488154	-13.993391	
2.6100	-16.101032	-32.845984	59.384434	86.751138	785.665975	-45.397238	28.523580	-45.000000	39.790825	-45.000000	-45.000000	-100.311987	-2807.845700	19.189639	-139.894268	1801.262466	-188.308557	11.849937	11.340444	-1.121756	29.596755	-25.998250	-45.000000	-45.000000	-3521.048799	-451.956685	134.042535	-106.894234	1790.249398	43.749504	11.559528	-14.112366	
2.6200	-16.209292	-32.586706	59.205294	85.989786	786.086434	-45.609711	28.462120	-45.000000	39.793639	-45.000000	-45.000000	-100.289836	-2807.716357	19.286631	-140.177685	1801.325710	-188.373257	11.944216	11.201200	-1.046041	29.636560	-26.175544	-45.000000	-45.000000	-3520.905482	-451.857415	134.025848	-106.880581	1790.306392	43.827325	11.601378	-14.221485	
2.6300	-16.320875	-32.345699	59.024308	85.098590	786.542126	-45.790922	28.401953	-45.000000	39.807758	-45.000000	-45.000000	-100.281815	-2807.578602	19.385152	-140.483720	1801.377280	-188.433106	12.048638	11.061140	-0.966945	29.683996	-26.350522	-45.000000	-45.000000	-3520.758709	-451.739559	134.007640	-106.842200	1790.355369	43.948456	11.616771	-14.351208	
2.6400	-16.442126	-32.119068	58.833892	84.082807	787.026598	-45.940885	28.350931	-45.000000	39.823599	-45.000000	-45.000000	-100.278549	-2807.422891	19.481253	-140.787672	1801.411932	-188.454596	12.160180	10.927139	-0.895116	29.755216	-26.532148	-45.000000	-45.000000	-3520.612153	-451.617892	133.991508	-106.770028	1790.406311	44.101478	11.591849	-14.464010	
2.6500	-16.567100	-31.911545	58.648203	82.944474	787.535263	-46.060527	28.307148	-45.000000	39.850185	-45.000000	-45.000000	-100.290998	-2807.267200	19.574800	-141.097211	1801.441110	-188.415173	12.279708	10.796593	-0.827422	29.831015	-26.716432	-45.000000	-45.000000	-3520.453312	-451.486539	133.970308	-106.653007	1790.444375	44.265754	11.539327	-14.586699	
2.6600	-16.706128	-31.718822	58.453506	81.680185	788.066982	-46.152983	28.271201	-45.000000	39.875218	-45.000000	-45.000000	-100.309794	-2807.109922	19.667022	-141.408170	1801.465873	-188.295750	12.406068	10.669029	-0.766123	29.912570	-26.915564	-45.000000	-45.000000	-3520.275762	-451.354127	133.943469	-106.489753	1790.471994	44.428007	11.464463	-14.704080	
2.6700	-16.855553	-31.539904	58.248278	80.283626	788.623087	-46.223308	28.241899	-45.000000	39.903404	-45.000000	-45.000000	-100.335298	-2806.953935	19.760205	-141.725272	1801.486769	-188.085707	12.536437	10.549572	-0.708750	29.994773	-27.117121	-45.000000	-45.000000	-3520.089432	-451.215987	133.912244	-106.287347	1790.487227	44.580145	11.373022	-14.824626	
2.6800	-17.023069	-31.369265	58.016533	78.745926	789.207567	-46.278455	28.218245	-45.000000	39.933483	-45.000000	-45.000000	-100.361285	-2806.803167	19.858122	-142.052485	1801.506192	-187.780918	12.667839	10.440713	-0.653294	30.071440	-27.320400	-45.000000	-45.000000	-3519.893112	-451.074546	133.870742	-106.061311	1790.500878	44.723590	11.274499	-14.946763	
2.6900	-17.205884	-31.203873	57.761367	77.059823	789.824779	-46.325432	28.201176	-45.000000	39.966485	-45.000000	-45.000000	-100.391143	-2806.657468	19.959167	-142.392935	1801.521653	-187.384599	12.798909	10.345020	-0.600252	30.144830	-27.525256	-45.000000	-45.000000	-3519.688367	-450.929636	133.823284	-105.818322	1790.512527	44.864783	11.182517	-15.073781	
2.7000	-17.411004	-31.037005	57.469743	75.219064	790.479651	-46.370867	28.186586	-45.000000	39.999345	-45.000000	-45.000000	-100.420867	-2806.516964	20.064316	-142.751481	1801.534811	-186.908465	12.927479	10.264799	-0.547580	30.208822	-27.732639	-45.000000	-45.000000	-3519.477768	-450.782966	133.767775	-105.574114	1790.531208	45.011979	11.102557	-15.206226	
2.7100	-17.629985	-30.871445	57.156671	73.222266	791.175032	-46.418751	28.178063	-45.000000	40.033671	-45.000000	-45.000000	-100.456038	-2806.378797	20.168319	-143.125355	1801.541135	-186.366456	13.052876	10.202654	-0.496250	30.276829	-27.942182	-45.000000	-45.000000	-3519.262610	-450.632527	133.714333	-105.325927	1790.552177	45.170464	11.045624	-15.344735	
2.7200	-17.865552	-30.705819	56.818096	71.071229	791.912218	-46.470463	28.174255	-45.000000	40.066526	-45.000000	-45.000000	-100.493948	-2806.245416	20.270751	-143.514661	1801.541291	-185.776625	13.173522	10.160978	-0.446074	30.345769	-28.151745	-45.000000	-45.000000	-3519.044901	-450.479705	133.662346	-105.081454	1790.579521	45.338530	11.010694	-15.485979	
2.7300	-18.120416	-30.538310	56.452248	68.771934	792.690111	-46.524449	28.170719	-45.000000	40.093853	-45.000000	-45.000000	-100.534498	-2806.116875	20.372366	-143.912508	1801.536307	-185.157262	13.288285	10.140901	-0.395511	30.417516	-28.361157	-45.000000	-45.000000	-3518.825249	-450.324837	133.608851	-104.840484	1790.611173	45.508069	10.995722	-15.624665	
2.7400	-18.397583	-30.365845	56.053519	66.332115	793.506575	-46.577732	28.163409	-45.000000	40.112202	-45.000000	-45.000000	-100.576814	-2805.992573	20.474798	-144.317183	1801.525868	-184.528563	13.397242	10.142208	-0.344270	30.483074	-28.569717	-45.000000	-45.000000	-3518.605629	-450.171536	133.549585	-104.613995	1790.647711	45.669068	10.995698	-15.754971	
